<svg width="627" height="218" viewBox="0 0 627 218" fill="none" xmlns="http://www.w3.org/2000/svg">
<g clip-path="url(#clip0_3924_9781)">
<g filter="url(#filter0_d_3924_9781)">
<circle cx="96" cy="109" r="80" fill="url(#paint0_linear_3924_9781)"/>
</g>
<path d="M233.068 144V74.1818H261.023C266.159 74.1818 270.443 74.9432 273.875 76.4659C277.307 77.9886 279.886 80.1023 281.614 82.8068C283.341 85.4886 284.205 88.5795 284.205 92.0795C284.205 94.8068 283.659 97.2045 282.568 99.2727C281.477 101.318 279.977 103 278.068 104.318C276.182 105.614 274.023 106.534 271.591 107.08V107.761C274.25 107.875 276.739 108.625 279.057 110.011C281.398 111.398 283.295 113.341 284.75 115.841C286.205 118.318 286.932 121.273 286.932 124.705C286.932 128.409 286.011 131.716 284.17 134.625C282.352 137.511 279.659 139.795 276.091 141.477C272.523 143.159 268.125 144 262.898 144H233.068ZM247.83 131.932H259.864C263.977 131.932 266.977 131.148 268.864 129.58C270.75 127.989 271.693 125.875 271.693 123.239C271.693 121.307 271.227 119.602 270.295 118.125C269.364 116.648 268.034 115.489 266.307 114.648C264.602 113.807 262.568 113.386 260.205 113.386H247.83V131.932ZM247.83 103.398H258.773C260.795 103.398 262.591 103.045 264.159 102.341C265.75 101.614 267 100.591 267.909 99.2727C268.841 97.9545 269.307 96.375 269.307 94.5341C269.307 92.0114 268.409 89.9773 266.614 88.4318C264.841 86.8864 262.318 86.1136 259.045 86.1136H247.83V103.398ZM319.923 145.023C314.628 145.023 310.048 143.898 306.185 141.648C302.344 139.375 299.378 136.216 297.287 132.17C295.196 128.102 294.151 123.386 294.151 118.023C294.151 112.614 295.196 107.886 297.287 103.841C299.378 99.7727 302.344 96.6136 306.185 94.3636C310.048 92.0909 314.628 90.9545 319.923 90.9545C325.219 90.9545 329.787 92.0909 333.628 94.3636C337.491 96.6136 340.469 99.7727 342.56 103.841C344.651 107.886 345.696 112.614 345.696 118.023C345.696 123.386 344.651 128.102 342.56 132.17C340.469 136.216 337.491 139.375 333.628 141.648C329.787 143.898 325.219 145.023 319.923 145.023ZM319.991 133.773C322.401 133.773 324.412 133.091 326.026 131.727C327.639 130.341 328.855 128.455 329.673 126.068C330.514 123.682 330.935 120.966 330.935 117.92C330.935 114.875 330.514 112.159 329.673 109.773C328.855 107.386 327.639 105.5 326.026 104.114C324.412 102.727 322.401 102.034 319.991 102.034C317.56 102.034 315.514 102.727 313.855 104.114C312.219 105.5 310.98 107.386 310.139 109.773C309.321 112.159 308.912 114.875 308.912 117.92C308.912 120.966 309.321 123.682 310.139 126.068C310.98 128.455 312.219 130.341 313.855 131.727C315.514 133.091 317.56 133.773 319.991 133.773ZM378.798 145.023C373.503 145.023 368.923 143.898 365.06 141.648C361.219 139.375 358.253 136.216 356.162 132.17C354.071 128.102 353.026 123.386 353.026 118.023C353.026 112.614 354.071 107.886 356.162 103.841C358.253 99.7727 361.219 96.6136 365.06 94.3636C368.923 92.0909 373.503 90.9545 378.798 90.9545C384.094 90.9545 388.662 92.0909 392.503 94.3636C396.366 96.6136 399.344 99.7727 401.435 103.841C403.526 107.886 404.571 112.614 404.571 118.023C404.571 123.386 403.526 128.102 401.435 132.17C399.344 136.216 396.366 139.375 392.503 141.648C388.662 143.898 384.094 145.023 378.798 145.023ZM378.866 133.773C381.276 133.773 383.287 133.091 384.901 131.727C386.514 130.341 387.73 128.455 388.548 126.068C389.389 123.682 389.81 120.966 389.81 117.92C389.81 114.875 389.389 112.159 388.548 109.773C387.73 107.386 386.514 105.5 384.901 104.114C383.287 102.727 381.276 102.034 378.866 102.034C376.435 102.034 374.389 102.727 372.73 104.114C371.094 105.5 369.855 107.386 369.014 109.773C368.196 112.159 367.787 114.875 367.787 117.92C367.787 120.966 368.196 123.682 369.014 126.068C369.855 128.455 371.094 130.341 372.73 131.727C374.389 133.091 376.435 133.773 378.866 133.773ZM427.173 128.932L427.207 111.511H429.321L446.094 91.6364H462.764L440.23 117.955H436.787L427.173 128.932ZM414.014 144V74.1818H428.537V144H414.014ZM446.741 144L431.332 121.193L441.014 110.932L463.753 144H446.741ZM469.889 144V91.6364H484.412V144H469.889ZM477.185 84.8864C475.026 84.8864 473.173 84.1705 471.628 82.7386C470.105 81.2841 469.344 79.5455 469.344 77.5227C469.344 75.5227 470.105 73.8068 471.628 72.375C473.173 70.9205 475.026 70.1932 477.185 70.1932C479.344 70.1932 481.185 70.9205 482.707 72.375C484.253 73.8068 485.026 75.5227 485.026 77.5227C485.026 79.5455 484.253 81.2841 482.707 82.7386C481.185 84.1705 479.344 84.8864 477.185 84.8864ZM510.568 113.727V144H496.045V91.6364H509.886V100.875H510.5C511.659 97.8295 513.602 95.4205 516.33 93.6477C519.057 91.8523 522.364 90.9545 526.25 90.9545C529.886 90.9545 533.057 91.75 535.761 93.3409C538.466 94.9318 540.568 97.2045 542.068 100.159C543.568 103.091 544.318 106.591 544.318 110.659V144H529.795V113.25C529.818 110.045 529 107.545 527.341 105.75C525.682 103.932 523.398 103.023 520.489 103.023C518.534 103.023 516.807 103.443 515.307 104.284C513.83 105.125 512.67 106.352 511.83 107.966C511.011 109.557 510.591 111.477 510.568 113.727ZM579.355 164.727C574.651 164.727 570.616 164.08 567.253 162.784C563.912 161.511 561.253 159.773 559.276 157.568C557.298 155.364 556.014 152.886 555.423 150.136L568.855 148.33C569.264 149.375 569.912 150.352 570.798 151.261C571.685 152.17 572.855 152.898 574.31 153.443C575.787 154.011 577.582 154.295 579.696 154.295C582.855 154.295 585.457 153.523 587.503 151.977C589.571 150.455 590.605 147.898 590.605 144.307V134.727H589.991C589.355 136.182 588.401 137.557 587.128 138.852C585.855 140.148 584.219 141.205 582.219 142.023C580.219 142.841 577.832 143.25 575.06 143.25C571.128 143.25 567.548 142.341 564.321 140.523C561.116 138.682 558.56 135.875 556.651 132.102C554.764 128.307 553.821 123.511 553.821 117.716C553.821 111.784 554.787 106.83 556.719 102.852C558.651 98.875 561.219 95.8977 564.423 93.9205C567.651 91.9432 571.185 90.9545 575.026 90.9545C577.957 90.9545 580.412 91.4545 582.389 92.4545C584.366 93.4318 585.957 94.6591 587.162 96.1364C588.389 97.5909 589.332 99.0227 589.991 100.432H590.537V91.6364H604.957V144.511C604.957 148.966 603.866 152.693 601.685 155.693C599.503 158.693 596.48 160.943 592.616 162.443C588.776 163.966 584.355 164.727 579.355 164.727ZM579.662 132.341C582.003 132.341 583.98 131.761 585.594 130.602C587.23 129.42 588.48 127.739 589.344 125.557C590.23 123.352 590.673 120.716 590.673 117.648C590.673 114.58 590.241 111.92 589.378 109.67C588.514 107.398 587.264 105.636 585.628 104.386C583.991 103.136 582.003 102.511 579.662 102.511C577.276 102.511 575.264 103.159 573.628 104.455C571.991 105.727 570.753 107.5 569.912 109.773C569.071 112.045 568.651 114.67 568.651 117.648C568.651 120.67 569.071 123.284 569.912 125.489C570.776 127.67 572.014 129.364 573.628 130.568C575.264 131.75 577.276 132.341 579.662 132.341Z" fill="url(#paint1_linear_3924_9781)"/>
</g>
<defs>
<filter id="filter0_d_3924_9781" x="-15" y="2" width="222" height="222" filterUnits="userSpaceOnUse" color-interpolation-filters="sRGB">
<feFlood flood-opacity="0" result="BackgroundImageFix"/>
<feColorMatrix in="SourceAlpha" type="matrix" values="0 0 0 0 0 0 0 0 0 0 0 0 0 0 0 0 0 0 127 0" result="hardAlpha"/>
<feMorphology radius="5" operator="dilate" in="SourceAlpha" result="effect1_dropShadow_3924_9781"/>
<feOffset dy="4"/>
<feGaussianBlur stdDeviation="13"/>
<feComposite in2="hardAlpha" operator="out"/>
<feColorMatrix type="matrix" values="0 0 0 0 0 0 0 0 0 0 0 0 0 0 0 0 0 0 0.25 0"/>
<feBlend mode="normal" in2="BackgroundImageFix" result="effect1_dropShadow_3924_9781"/>
<feBlend mode="normal" in="SourceGraphic" in2="effect1_dropShadow_3924_9781" result="shape"/>
</filter>
<linearGradient id="paint0_linear_3924_9781" x1="96" y1="29" x2="96" y2="189" gradientUnits="userSpaceOnUse">
<stop stop-color="#F3A000"/>
<stop offset="1" stop-color="#B57700"/>
</linearGradient>
<linearGradient id="paint1_linear_3924_9781" x1="350.5" y1="120" x2="557" y2="167" gradientUnits="userSpaceOnUse">
<stop stop-color="#F3A000"/>
<stop offset="1" stop-color="#BF7E00"/>
</linearGradient>
<clipPath id="clip0_3924_9781">
<rect width="627" height="218" fill="white"/>
</clipPath>
</defs>
</svg>
